<?xml version="1.0" encoding="UTF-8"?>
<svg width="64" height="64" viewBox="0 0 64 64" xmlns="http://www.w3.org/2000/svg">
  <rect width="64" height="64" rx="14" fill="#000000"/>
  <path d="M48 18.5c-1.5.7-3.1 1.1-4.8 1.3 1.7-1 3.1-2.7 3.7-4.6-1.6 1-3.4 1.7-5.3 2.1-1.5-1.6-3.7-2.6-6.1-2.6-4.6 0-8.4 3.8-8.4 8.4 0 .7.1 1.3.2 1.9-7-0.4-13.2-3.7-17.3-8.8-.7 1.3-1.1 2.8-1.1 4.4 0 2.9 1.5 5.5 3.7 7-1.4 0-2.7-.4-3.9-1.1v.1c0 4.1 2.9 7.5 6.8 8.3-.7.2-1.5.3-2.3.3-.6 0-1.1 0-1.6-.1 1.1 3.4 4.1 5.9 7.7 6 2.9 2.3 6.5 3.7 10.4 3.7 12.5 0 19.3-10.4 19.3-19.3 0-.3 0-.6 0-.9 1.3-1 2.5-2.2 3.4-3.6z" fill="#FFFFFF"/>
</svg>
