<svg xmlns="http://www.w3.org/2000/svg" width="64" height="64" viewBox="0 0 24 24" fill="#25D366"><path d="M20.52 3.48A11.94 11.94 0 0012 0C5.373 0 0 5.373 0 12c0 2.119.556 4.09 1.607 5.827L0 24l6.48-1.593A11.94 11.94 0 0012 24c6.627 0 12-5.373 12-12 0-3.197-1.246-6.198-3.48-8.52zM12 21.6c-1.653 0-3.273-.44-4.683-1.27l-.336-.2-3.85.947.979-3.755-.218-.346A9.6 9.6 0 012.4 12c0-5.304 4.296-9.6 9.6-9.6 2.56 0 4.955.998 6.737 2.78A9.505 9.505 0 0121.6 12c0 5.304-4.296 9.6-9.6 9.6z"/><path d="M17.57 14.32l-1.07-.31c-.14-.04-.3-.04-.44.02l-.92.34c-.4.15-.86.03-1.17-.29l-.71-.71c-.3-.3-.44-.73-.34-1.14l.24-1.02c.06-.26.04-.53-.06-.78l-.35-1.05c-.13-.4-.53-.67-.95-.63l-1.2.16c-.45.06-.83.38-.96.82-.42 1.71-.12 3.52.86 4.95 1.04 1.53 2.66 2.59 4.45 2.82 1.03.14 2.07-.02 2.98-.44.48-.22.79-.69.83-1.23l.09-1.13c.05-.49-.18-.97-.6-1.21z" fill="#fff"/></svg>